<svg width="346" height="38" viewBox="0 0 346 38" fill="none" xmlns="http://www.w3.org/2000/svg">
<path d="M22.1328 33.938V28.7991C23.1816 28.7991 24.2352 28.6996 25.26 28.8254C26.3508 28.9609 26.6904 30.1105 25.98 30.9484C25.8984 31.0443 25.8204 31.1438 25.74 31.2433C26.508 31.7695 26.7564 32.2274 26.4996 32.991C26.3796 33.3507 26.0004 33.6252 25.7388 33.938H22.1328ZM22.7988 31.6221V33.3638C23.5248 33.3638 24.2268 33.3734 24.9276 33.3638C25.4724 33.3531 25.8324 33.0833 25.854 32.5163C25.8744 31.9242 25.4328 31.6772 24.9504 31.6401C24.2592 31.5765 23.5524 31.6221 22.7988 31.6221ZM22.7988 31.0407C23.6148 30.9748 24.3588 30.964 25.0788 30.8273C25.2876 30.7878 25.5852 30.3694 25.5588 30.1596C25.5252 29.8887 25.23 29.4679 25.0068 29.4404C24.2868 29.3481 23.538 29.4056 22.794 29.4056L22.7988 31.0407Z" fill="white"/>
<path d="M57.4023 33.9385V28.5693C57.8127 28.8091 58.1547 28.9062 58.3479 29.1315C59.3079 30.2584 60.2223 31.4175 61.2411 32.6738V28.7695C61.5759 28.7887 61.9551 28.5466 61.9611 29.0692C61.9611 30.6923 61.9311 32.3154 61.9119 33.9397H61.2675C60.2751 32.6774 59.2815 31.4151 58.1787 30.015V33.9397L57.4023 33.9385Z" fill="white"/>
<path d="M33.2038 33.9392C32.1238 33.2559 31.8238 32.237 31.9078 31.0226C31.9582 30.2806 31.9174 29.5326 31.9174 28.763H32.689C32.689 29.7855 32.6818 30.7865 32.689 31.7886C32.6974 32.6613 33.2062 33.4872 34.3234 33.3638C35.0962 33.2787 35.6362 32.756 35.6518 31.9253C35.6722 30.8992 35.6578 29.8742 35.6578 28.7774L36.403 28.7402C36.403 29.9054 36.4498 31.0178 36.3874 32.1243C36.3406 32.9406 35.7646 33.4788 35.1334 33.9368L33.2038 33.9392Z" fill="white"/>
<path d="M67.6953 33.9393V28.7379C68.8437 28.7379 69.9297 28.7295 71.0157 28.7511C71.1237 28.7511 71.2269 28.9381 71.3325 29.0388C71.2125 29.1491 71.1009 29.3505 70.9797 29.3541C70.1697 29.3829 69.3573 29.3697 68.5077 29.3697V30.9484H71.0049C71.0265 31.1882 71.0433 31.3668 71.0649 31.6113H68.5053V33.3627C69.2997 33.3627 70.1037 33.3771 70.9053 33.3627C71.3433 33.3507 71.5761 33.461 71.4273 33.9453L67.6953 33.9393Z" fill="white"/>
<path d="M77.4786 33.9388L76.4766 33.3562L76.7562 32.7832C77.4606 33.4233 78.2922 33.4545 79.1178 33.2927C79.3758 33.2423 79.689 32.9211 79.7586 32.6645C79.803 32.5015 79.4898 32.1347 79.2594 32.0268C78.7547 31.7999 78.2279 31.6255 77.6874 31.5066C77.0178 31.3459 76.647 30.9336 76.5894 30.2814C76.5342 29.6677 77.0694 28.9221 77.727 28.843C78.4215 28.7724 79.1227 28.8047 79.8078 28.9389C80.3514 29.0384 80.3346 29.1247 80.1798 29.5982C79.473 29.5322 78.789 29.3944 78.1194 29.4423C77.8458 29.4627 77.4846 29.8427 77.3718 30.1376C77.2158 30.5452 77.5398 30.7729 77.9526 30.8796C78.4458 31.0079 78.9126 31.2548 79.4094 31.3399C80.0478 31.449 80.4426 31.8086 80.5422 32.3876C80.6514 33.0206 80.2818 33.4785 79.7358 33.7878C79.6661 33.8332 79.6 33.8837 79.5378 33.9388H77.4786Z" fill="white"/>
<path d="M42.6007 33.9389C42.4171 33.8334 42.2407 33.7159 42.0487 33.6272C41.6263 33.433 41.5855 33.1693 41.9107 32.7941C42.5527 33.4018 43.3579 33.4126 44.1739 33.3419C44.5783 33.3071 44.9287 33.1681 44.9911 32.6826C45.0535 32.1971 44.7343 32.0832 44.3551 31.9741C43.8439 31.8351 43.3435 31.6577 42.8383 31.4946C42.1183 31.2681 41.6827 30.7838 41.7007 30.2228C41.7199 29.5911 42.2827 28.9569 42.9667 28.7939C43.845 28.6017 44.7637 28.7545 45.5323 29.2206C45.4423 29.3933 45.3499 29.5683 45.3439 29.5803C44.5855 29.5131 43.9267 29.4136 43.2679 29.4124C42.8239 29.4124 42.5131 29.6917 42.4639 30.1712C42.4147 30.6507 42.7507 30.7778 43.1215 30.8905C43.6315 31.0403 44.1271 31.2357 44.6419 31.3616C45.1567 31.4875 45.5815 31.7212 45.6691 32.2762C45.7567 32.8312 45.6763 33.3467 45.0955 33.6464C44.98 33.7296 44.8766 33.8285 44.7883 33.9401L42.6007 33.9389Z" fill="white"/>
<path d="M86.235 33.9385C86.073 33.845 85.9122 33.7479 85.749 33.658C85.4082 33.471 85.3074 33.2348 85.4598 33.0466C86.2998 33.1665 87.0102 33.3043 87.7314 33.3319C87.8875 33.3237 88.0404 33.2846 88.1813 33.2169C88.3222 33.1492 88.4483 33.0542 88.5522 32.9375C88.8222 32.6211 88.7706 32.2459 88.3122 32.0804C87.7314 31.8742 87.1458 31.6777 86.5554 31.5014C85.7586 31.2617 85.4754 30.968 85.4682 30.3027C85.4562 29.5619 85.8282 28.9673 86.5398 28.8331C87.423 28.6652 88.3302 28.5933 89.1702 29.2298L88.9002 29.7465L88.887 29.5655C88.2282 29.5127 87.567 29.4168 86.9106 29.4252C86.5098 29.4252 86.1906 29.665 86.1594 30.1445C86.1306 30.594 86.3478 30.7834 86.7666 30.8853C87.261 31.0052 87.7266 31.2449 88.2234 31.3468C88.7958 31.4667 89.2266 31.7328 89.3646 32.3154C89.5026 32.898 89.229 33.3427 88.7466 33.6712C88.635 33.7552 88.5284 33.8457 88.4274 33.9421L86.235 33.9385Z" fill="white"/>
<path d="M50.8359 33.9388V28.7698L51.6087 28.7314V33.9376L50.8359 33.9388Z" fill="white"/>
<path d="M17.888 13H21.89V15.7103C21.89 16.9534 21.7844 18.2085 21.9212 19.436C22.0412 20.5437 21.4412 20.9716 20.6372 21.39C18.4256 22.5455 16.0772 23.0011 13.5896 22.8848C11.5388 22.7889 9.66316 22.2207 7.99396 21.004C5.89996 19.4768 4.65316 17.4437 4.24996 14.882C3.83356 12.2448 4.33396 9.78258 5.86036 7.60568C6.89013 6.11748 8.358 4.98631 10.0604 4.36908C12.0248 3.64984 14.0204 3.3094 16.1312 3.67142C17.378 3.88479 18.6032 4.1581 19.6976 4.77425C20.4992 5.22498 21.2036 5.85312 21.9296 6.43571C22.2152 6.66227 22.1756 6.94277 21.896 7.19091C21.2096 7.79148 20.5208 8.39085 19.8656 9.03097C19.5452 9.34384 19.3256 9.33665 19.0256 9.02139C16.9856 6.914 13.4024 6.83009 11.1476 8.19186C9.68836 9.07053 8.93356 10.4563 8.61556 12.1069C8.27116 13.905 8.69836 15.5461 9.70276 17.0038C10.4552 18.0946 11.6336 18.6449 12.9032 19.0297C14.4908 19.5091 15.9728 19.1735 17.4632 18.6544C17.8232 18.5346 17.8964 18.3248 17.894 17.9855C17.8808 16.3433 17.888 14.6974 17.888 13Z" fill="white"/>
<path d="M81.9942 3.58126C82.7334 3.58126 83.4342 3.58126 84.1326 3.58126C84.5406 3.58126 84.9606 3.63281 85.3518 3.5489C85.9638 3.41704 86.1246 3.59325 86.1186 4.213C86.0886 7.23382 86.1594 10.2558 86.0838 13.2743C86.0394 15.0987 85.7826 16.9388 84.7938 18.5283C83.781 20.1574 82.4106 21.4269 80.5938 22.1893C78.4722 23.0787 76.3158 23.1303 74.1558 22.4962C71.8878 21.8297 70.2006 20.4008 69.0126 18.3413C68.0526 16.6895 67.8606 14.8938 67.839 13.0669C67.8042 10.0461 67.8282 7.02524 67.8306 4.00322C67.8306 3.88335 67.8546 3.75748 67.8714 3.60164H71.817V4.3065C71.817 7.26379 71.8242 10.2211 71.817 13.1772C71.817 14.6648 72.1974 16.0386 73.1034 17.2121C73.6377 17.9026 74.3824 18.4008 75.225 18.6314C76.8894 19.0833 78.5514 19.0126 79.9746 17.9589C80.5839 17.5236 81.0822 16.9512 81.429 16.2879C81.7759 15.6247 81.9617 14.8892 81.9714 14.1409C82.0338 11.0242 81.9942 7.89672 81.9966 4.77401L81.9942 3.58126Z" fill="white"/>
<path d="M99.042 18.4715C98.9364 17.618 98.4 17.208 97.854 16.8675C96.672 16.1291 95.4432 15.465 94.2456 14.7482C92.7084 13.8275 91.1016 12.9944 89.6784 11.9204C88.374 10.9362 87.6876 8.72811 88.4964 6.76578C89.484 4.3683 91.4088 3.55556 93.7764 3.5184C96.348 3.47884 98.9208 3.56275 101.494 3.56514C101.952 3.56514 102.082 3.71259 102.071 4.15492C102.044 5.26496 102.062 6.37499 102.062 7.54016C101.774 7.55694 101.569 7.57972 101.365 7.57972C98.856 7.57972 96.348 7.57013 93.84 7.5917C93.4376 7.60304 93.0406 7.68796 92.6688 7.84224C92.2416 8.01606 92.0508 8.38647 92.484 8.72331C93.3501 9.41753 94.2513 10.0669 95.184 10.6689C97.1328 11.8892 99.1716 12.974 101.072 14.2651C102.676 15.3511 103.445 16.9479 103.09 18.9402C102.85 20.278 102.137 21.3113 101.02 22.0964C99.642 23.0662 98.0472 22.8912 96.5148 22.9763C95.0856 23.0566 93.648 22.9943 92.3028 22.9943L89.718 18.897C92.9196 18.8419 96.0156 19.2794 99.042 18.4715Z" fill="white"/>
<path d="M64.5078 3.6218V7.58723H62.0418C60.177 7.58723 58.311 7.56685 56.445 7.58723C56.0024 7.61475 55.5656 7.70226 55.1466 7.84735C54.6906 7.98281 54.6522 8.38199 54.9258 8.64931C55.4411 9.17638 56.0143 9.64365 56.6346 10.0422C58.8798 11.4208 61.1946 12.6951 63.4098 14.118C65.0646 15.1788 65.9298 16.7552 65.6322 18.7739C65.3418 20.7014 64.1574 22.3365 62.139 22.6518C60.2334 22.9503 58.2618 22.8124 56.3238 22.9347C55.1838 23.0054 54.4266 22.6865 53.9238 21.5705C53.5086 20.6439 52.8354 19.8323 52.2846 18.9812C53.8854 18.9812 55.443 19.0184 56.9982 18.9704C58.257 18.9309 59.5182 18.8062 60.7686 18.6756C61.0266 18.6492 61.479 18.4082 61.4706 18.2968C61.4454 17.9935 61.2978 17.5967 61.0626 17.4313C60.045 16.718 58.989 16.0551 57.9258 15.4114C56.4738 14.5327 54.9918 13.7056 53.5458 12.8197C52.9474 12.4699 52.3909 12.0528 51.8874 11.5766C50.4054 10.1046 50.4402 7.62918 51.345 6.08401C52.425 4.23795 54.129 3.55228 56.1246 3.51871C58.8258 3.47436 61.5246 3.54868 64.2306 3.57385C64.324 3.58373 64.4166 3.59974 64.5078 3.6218Z" fill="white"/>
<path d="M48.6179 22.8823C47.2367 22.8823 45.9299 22.9087 44.6255 22.8583C44.3759 22.8487 44.0471 22.5922 43.9055 22.3573C43.0931 20.9943 42.3455 19.6002 41.5427 18.2228C40.3235 16.125 39.0839 14.0392 37.8503 11.9486C37.6799 11.6597 37.5107 11.3708 37.3187 11.0963C36.8123 10.3771 36.1187 10.3195 35.6159 11.052C34.9487 12.0277 34.3763 13.0682 33.7787 14.0908C32.7459 15.8601 31.7203 17.6342 30.7019 19.4132C30.1787 20.3326 29.6699 21.2616 29.1923 22.2062C28.9523 22.6857 28.6655 22.9254 28.0679 22.9003C26.8523 22.8403 25.6319 22.8823 24.3047 22.8823C25.2479 21.222 26.1551 19.6361 27.0503 18.0454C28.0235 16.3168 28.9835 14.5798 29.9543 12.8501C30.6743 11.5602 31.4023 10.2724 32.1383 8.98653C32.8919 7.66312 33.6491 6.34211 34.4099 5.0235C34.7763 4.34351 35.3713 3.81456 36.0899 3.52987C36.8099 3.26016 37.4027 3.76962 37.7951 4.2659C38.5096 5.20178 39.1683 6.17884 39.7679 7.19202C40.4591 8.32602 41.0819 9.50198 41.7383 10.6576C42.6659 12.2902 43.6043 13.9169 44.5247 15.5532C45.8783 17.9603 47.2199 20.3781 48.6179 22.8823Z" fill="white"/>
<path d="M112.868 22.5875C113.391 22.8272 113.438 23.0202 113.239 24.1458H110.582C110.025 24.1458 109.467 24.1315 108.91 24.1458C106.774 24.2046 105.956 22.6798 106.078 20.8361C106.117 20.2499 106.3 19.6662 106.475 19.0992C106.557 18.8402 106.733 18.4698 107.119 18.7395C107.411 18.9469 108.011 18.9397 107.744 19.6206C107.524 20.145 107.395 20.7027 107.362 21.2701C107.336 22.1092 107.92 22.5887 108.657 22.5887C108.562 21.9318 108.429 21.2641 108.377 20.5904C108.319 19.8232 108.761 19.2454 109.313 18.8079C110.113 18.1725 111.603 18.2217 112.377 18.8246C113.444 19.659 113.601 20.8086 112.868 22.5875ZM109.659 21.2617C109.659 22.0924 110.104 22.6163 110.823 22.6282C111.542 22.6402 112.101 22.0684 112.103 21.2892C112.103 20.4106 111.631 19.9107 110.8 19.9239C109.99 19.9347 109.659 20.3231 109.659 21.2617Z" fill="white"/>
<path d="M107.986 9.57421C107.936 8.01585 109.288 6.72841 110.647 6.71882C112.139 6.70803 113.437 8.02664 113.383 9.63535C113.316 11.5965 112.11 12.5543 110.651 12.5423C109.241 12.5315 108.01 11.5749 107.986 9.57421ZM110.664 8.32153C109.817 8.32753 109.271 8.84658 109.272 9.64014C109.273 10.4337 109.825 10.9168 110.698 10.9084C111.57 10.9 112.115 10.3798 112.104 9.60538C112.093 8.83099 111.503 8.31554 110.664 8.32153Z" fill="white"/>
<path d="M112.02 17.33C111.87 15.9131 111.464 15.5547 110.041 15.5511H108.031V14.0742H113.22C113.482 15.1447 113.394 15.4672 112.86 15.5858L113.522 17.33H112.02Z" fill="white"/>
<path d="M109.862 4.70322C109.849 5.15395 109.364 5.64303 108.932 5.64303C108.479 5.64303 107.98 5.11439 107.984 4.63849C107.989 4.16259 108.454 3.72266 108.928 3.72266C109.054 3.72368 109.179 3.75009 109.295 3.80032C109.411 3.85055 109.516 3.92358 109.603 4.01506C109.69 4.10654 109.758 4.2146 109.803 4.33282C109.847 4.45104 109.868 4.577 109.862 4.70322Z" fill="white"/>
<path d="M131.856 13L129.228 4.6H130.068L132.276 12.112L134.508 4.6H135.264L137.472 12.112L139.692 4.6H140.52L137.916 13H137.076L134.892 5.896L132.684 13H131.856ZM146.431 9.652C146.431 9.804 146.423 9.936 146.407 10.048H141.487C141.495 10.744 141.695 11.312 142.087 11.752C142.479 12.184 142.983 12.4 143.599 12.4C144.119 12.4 144.547 12.284 144.883 12.052C145.227 11.82 145.443 11.492 145.531 11.068L146.251 11.212C146.115 11.812 145.815 12.276 145.351 12.604C144.887 12.932 144.307 13.096 143.611 13.096C142.755 13.096 142.059 12.804 141.523 12.22C140.987 11.628 140.719 10.88 140.719 9.976C140.719 9.072 140.987 8.328 141.523 7.744C142.059 7.152 142.755 6.856 143.611 6.856C144.435 6.856 145.111 7.12 145.639 7.648C146.167 8.168 146.431 8.836 146.431 9.652ZM141.547 9.352H145.651C145.587 8.816 145.375 8.384 145.015 8.056C144.655 7.72 144.187 7.552 143.611 7.552C143.075 7.552 142.623 7.712 142.255 8.032C141.895 8.352 141.659 8.792 141.547 9.352ZM152.944 6.856C153.648 6.856 154.22 7.056 154.66 7.456C155.108 7.856 155.332 8.376 155.332 9.016V13H154.576V11.896C154.392 12.264 154.108 12.556 153.724 12.772C153.34 12.988 152.912 13.096 152.44 13.096C151.832 13.096 151.336 12.932 150.952 12.604C150.576 12.276 150.388 11.848 150.388 11.32C150.388 10.744 150.632 10.296 151.12 9.976C151.608 9.648 152.356 9.432 153.364 9.328L154.576 9.208V9.04C154.576 8.584 154.424 8.224 154.12 7.96C153.824 7.688 153.432 7.552 152.944 7.552C152.48 7.552 152.1 7.68 151.804 7.936C151.508 8.192 151.332 8.54 151.276 8.98L150.544 8.836C150.632 8.244 150.896 7.768 151.336 7.408C151.776 7.04 152.312 6.856 152.944 6.856ZM152.5 12.4C153.156 12.4 153.664 12.208 154.024 11.824C154.392 11.44 154.576 10.9 154.576 10.204V9.844L153.388 9.964C151.916 10.124 151.18 10.576 151.18 11.32C151.18 11.64 151.304 11.9 151.552 12.1C151.8 12.3 152.116 12.4 152.5 12.4ZM160.435 7.696C160.195 7.6 159.931 7.552 159.643 7.552C159.115 7.552 158.683 7.824 158.347 8.368C158.011 8.904 157.843 9.668 157.843 10.66V13H157.087V6.952H157.843V8.236C158.027 7.836 158.299 7.508 158.659 7.252C159.019 6.988 159.387 6.856 159.763 6.856C160.027 6.856 160.267 6.892 160.483 6.964L160.435 7.696ZM166.587 9.652C166.587 9.804 166.579 9.936 166.563 10.048H161.643C161.651 10.744 161.851 11.312 162.243 11.752C162.635 12.184 163.139 12.4 163.755 12.4C164.275 12.4 164.703 12.284 165.039 12.052C165.383 11.82 165.599 11.492 165.687 11.068L166.407 11.212C166.271 11.812 165.971 12.276 165.507 12.604C165.043 12.932 164.463 13.096 163.767 13.096C162.911 13.096 162.215 12.804 161.679 12.22C161.143 11.628 160.875 10.88 160.875 9.976C160.875 9.072 161.143 8.328 161.679 7.744C162.215 7.152 162.911 6.856 163.767 6.856C164.591 6.856 165.267 7.12 165.795 7.648C166.323 8.168 166.587 8.836 166.587 9.652ZM161.703 9.352H165.807C165.743 8.816 165.531 8.384 165.171 8.056C164.811 7.72 164.343 7.552 163.767 7.552C163.231 7.552 162.779 7.712 162.411 8.032C162.051 8.352 161.815 8.792 161.703 9.352ZM173.1 6.856C173.804 6.856 174.376 7.056 174.816 7.456C175.264 7.856 175.488 8.376 175.488 9.016V13H174.732V11.896C174.548 12.264 174.264 12.556 173.88 12.772C173.496 12.988 173.068 13.096 172.596 13.096C171.988 13.096 171.492 12.932 171.108 12.604C170.732 12.276 170.544 11.848 170.544 11.32C170.544 10.744 170.788 10.296 171.276 9.976C171.764 9.648 172.512 9.432 173.52 9.328L174.732 9.208V9.04C174.732 8.584 174.58 8.224 174.276 7.96C173.98 7.688 173.588 7.552 173.1 7.552C172.636 7.552 172.256 7.68 171.96 7.936C171.664 8.192 171.488 8.54 171.432 8.98L170.7 8.836C170.788 8.244 171.052 7.768 171.492 7.408C171.932 7.04 172.468 6.856 173.1 6.856ZM172.656 12.4C173.312 12.4 173.82 12.208 174.18 11.824C174.548 11.44 174.732 10.9 174.732 10.204V9.844L173.544 9.964C172.072 10.124 171.336 10.576 171.336 11.32C171.336 11.64 171.46 11.9 171.708 12.1C171.956 12.3 172.272 12.4 172.656 12.4ZM183.005 13.096C182.533 13.096 182.097 12.992 181.697 12.784C181.305 12.576 181.041 12.324 180.905 12.028V13H180.149V4.504H180.905V7.924C181.105 7.612 181.401 7.356 181.793 7.156C182.185 6.956 182.589 6.856 183.005 6.856C183.933 6.856 184.653 7.152 185.165 7.744C185.685 8.328 185.945 9.072 185.945 9.976C185.945 10.88 185.685 11.628 185.165 12.22C184.653 12.804 183.933 13.096 183.005 13.096ZM181.409 11.74C181.801 12.18 182.325 12.4 182.981 12.4C183.637 12.4 184.161 12.18 184.553 11.74C184.945 11.3 185.141 10.712 185.141 9.976C185.141 9.24 184.945 8.652 184.553 8.212C184.161 7.772 183.637 7.552 182.981 7.552C182.325 7.552 181.801 7.772 181.409 8.212C181.017 8.652 180.821 9.24 180.821 9.976C180.821 10.712 181.017 11.3 181.409 11.74ZM192.385 6.952V13H191.629V11.74C191.397 12.156 191.093 12.488 190.717 12.736C190.349 12.976 189.933 13.096 189.469 13.096C188.845 13.096 188.333 12.904 187.933 12.52C187.533 12.128 187.333 11.616 187.333 10.984V6.952H188.089V10.888C188.089 11.336 188.221 11.7 188.485 11.98C188.757 12.26 189.121 12.4 189.577 12.4C190.193 12.4 190.689 12.148 191.065 11.644C191.441 11.14 191.629 10.46 191.629 9.604V6.952H192.385ZM196.134 13.096C195.454 13.096 194.906 12.928 194.49 12.592C194.082 12.248 193.81 11.836 193.674 11.356L194.346 11.02C194.666 11.94 195.262 12.4 196.134 12.4C196.534 12.4 196.862 12.296 197.118 12.088C197.382 11.88 197.514 11.632 197.514 11.344C197.514 11.024 197.39 10.776 197.142 10.6C196.902 10.416 196.606 10.284 196.254 10.204C195.902 10.124 195.55 10.036 195.198 9.94C194.846 9.844 194.546 9.672 194.298 9.424C194.058 9.176 193.938 8.84 193.938 8.416C193.938 7.936 194.126 7.556 194.502 7.276C194.886 6.996 195.398 6.856 196.038 6.856C196.55 6.856 197.006 6.996 197.406 7.276C197.806 7.548 198.066 7.904 198.186 8.344L197.526 8.644C197.446 8.324 197.262 8.064 196.974 7.864C196.686 7.656 196.358 7.552 195.99 7.552C195.59 7.552 195.278 7.628 195.054 7.78C194.83 7.924 194.718 8.136 194.718 8.416C194.718 8.672 194.842 8.872 195.09 9.016C195.338 9.16 195.634 9.272 195.978 9.352C196.33 9.424 196.682 9.516 197.034 9.628C197.386 9.732 197.682 9.928 197.922 10.216C198.17 10.504 198.294 10.88 198.294 11.344C198.294 11.872 198.094 12.296 197.694 12.616C197.302 12.936 196.782 13.096 196.134 13.096ZM199.612 4.504H200.548V5.656H199.612V4.504ZM199.696 13V6.952H200.452V13H199.696ZM202.204 13V6.952H202.96V8.212C203.192 7.796 203.492 7.468 203.86 7.228C204.236 6.98 204.656 6.856 205.12 6.856C205.744 6.856 206.256 7.052 206.656 7.444C207.056 7.828 207.256 8.336 207.256 8.968V13H206.5V9.064C206.5 8.616 206.364 8.252 206.092 7.972C205.828 7.692 205.468 7.552 205.012 7.552C204.396 7.552 203.9 7.804 203.524 8.308C203.148 8.812 202.96 9.492 202.96 10.348V13H202.204ZM214.365 9.652C214.365 9.804 214.357 9.936 214.341 10.048H209.421C209.429 10.744 209.629 11.312 210.021 11.752C210.413 12.184 210.917 12.4 211.533 12.4C212.053 12.4 212.481 12.284 212.817 12.052C213.161 11.82 213.377 11.492 213.465 11.068L214.185 11.212C214.049 11.812 213.749 12.276 213.285 12.604C212.821 12.932 212.241 13.096 211.545 13.096C210.689 13.096 209.993 12.804 209.457 12.22C208.921 11.628 208.653 10.88 208.653 9.976C208.653 9.072 208.921 8.328 209.457 7.744C209.993 7.152 210.689 6.856 211.545 6.856C212.369 6.856 213.045 7.12 213.573 7.648C214.101 8.168 214.365 8.836 214.365 9.652ZM209.481 9.352H213.585C213.521 8.816 213.309 8.384 212.949 8.056C212.589 7.72 212.121 7.552 211.545 7.552C211.009 7.552 210.557 7.712 210.189 8.032C209.829 8.352 209.593 8.792 209.481 9.352ZM217.684 13.096C217.004 13.096 216.456 12.928 216.04 12.592C215.632 12.248 215.36 11.836 215.224 11.356L215.896 11.02C216.216 11.94 216.812 12.4 217.684 12.4C218.084 12.4 218.412 12.296 218.668 12.088C218.932 11.88 219.064 11.632 219.064 11.344C219.064 11.024 218.94 10.776 218.692 10.6C218.452 10.416 218.156 10.284 217.804 10.204C217.452 10.124 217.1 10.036 216.748 9.94C216.396 9.844 216.096 9.672 215.848 9.424C215.608 9.176 215.488 8.84 215.488 8.416C215.488 7.936 215.676 7.556 216.052 7.276C216.436 6.996 216.948 6.856 217.588 6.856C218.1 6.856 218.556 6.996 218.956 7.276C219.356 7.548 219.616 7.904 219.736 8.344L219.076 8.644C218.996 8.324 218.812 8.064 218.524 7.864C218.236 7.656 217.908 7.552 217.54 7.552C217.14 7.552 216.828 7.628 216.604 7.78C216.38 7.924 216.268 8.136 216.268 8.416C216.268 8.672 216.392 8.872 216.64 9.016C216.888 9.16 217.184 9.272 217.528 9.352C217.88 9.424 218.232 9.516 218.584 9.628C218.936 9.732 219.232 9.928 219.472 10.216C219.72 10.504 219.844 10.88 219.844 11.344C219.844 11.872 219.644 12.296 219.244 12.616C218.852 12.936 218.332 13.096 217.684 13.096ZM223.239 13.096C222.559 13.096 222.011 12.928 221.595 12.592C221.187 12.248 220.915 11.836 220.779 11.356L221.451 11.02C221.771 11.94 222.367 12.4 223.239 12.4C223.639 12.4 223.967 12.296 224.223 12.088C224.487 11.88 224.619 11.632 224.619 11.344C224.619 11.024 224.495 10.776 224.247 10.6C224.007 10.416 223.711 10.284 223.359 10.204C223.007 10.124 222.655 10.036 222.303 9.94C221.951 9.844 221.651 9.672 221.403 9.424C221.163 9.176 221.043 8.84 221.043 8.416C221.043 7.936 221.231 7.556 221.607 7.276C221.991 6.996 222.503 6.856 223.143 6.856C223.655 6.856 224.111 6.996 224.511 7.276C224.911 7.548 225.171 7.904 225.291 8.344L224.631 8.644C224.551 8.324 224.367 8.064 224.079 7.864C223.791 7.656 223.463 7.552 223.095 7.552C222.695 7.552 222.383 7.628 222.159 7.78C221.935 7.924 221.823 8.136 221.823 8.416C221.823 8.672 221.947 8.872 222.195 9.016C222.443 9.16 222.739 9.272 223.083 9.352C223.435 9.424 223.787 9.516 224.139 9.628C224.491 9.732 224.787 9.928 225.027 10.216C225.275 10.504 225.399 10.88 225.399 11.344C225.399 11.872 225.199 12.296 224.799 12.616C224.407 12.936 223.887 13.096 223.239 13.096ZM232.564 13.096C232.092 13.096 231.656 12.992 231.256 12.784C230.864 12.576 230.6 12.324 230.464 12.028V13H229.708V4.504H230.464V7.924C230.664 7.612 230.96 7.356 231.352 7.156C231.744 6.956 232.148 6.856 232.564 6.856C233.492 6.856 234.212 7.152 234.724 7.744C235.244 8.328 235.504 9.072 235.504 9.976C235.504 10.88 235.244 11.628 234.724 12.22C234.212 12.804 233.492 13.096 232.564 13.096ZM230.968 11.74C231.36 12.18 231.884 12.4 232.54 12.4C233.196 12.4 233.72 12.18 234.112 11.74C234.504 11.3 234.7 10.712 234.7 9.976C234.7 9.24 234.504 8.652 234.112 8.212C233.72 7.772 233.196 7.552 232.54 7.552C231.884 7.552 231.36 7.772 230.968 8.212C230.576 8.652 230.38 9.24 230.38 9.976C230.38 10.712 230.576 11.3 230.968 11.74ZM241.944 6.952V13H241.188V11.74C240.956 12.156 240.652 12.488 240.276 12.736C239.908 12.976 239.492 13.096 239.028 13.096C238.404 13.096 237.892 12.904 237.492 12.52C237.092 12.128 236.892 11.616 236.892 10.984V6.952H237.648V10.888C237.648 11.336 237.78 11.7 238.044 11.98C238.316 12.26 238.68 12.4 239.136 12.4C239.752 12.4 240.248 12.148 240.624 11.644C241 11.14 241.188 10.46 241.188 9.604V6.952H241.944ZM243.616 4.504H244.552V5.656H243.616V4.504ZM243.7 13V6.952H244.456V13H243.7ZM246.208 13V4.504H246.964V13H246.208ZM251.728 12.964C251.464 13.052 251.156 13.096 250.804 13.096C250.308 13.096 249.916 12.948 249.628 12.652C249.34 12.348 249.196 11.892 249.196 11.284V7.648H248.02V6.952H249.196V5.092H249.952V6.952H251.62V7.648H249.952V11.404C249.952 11.732 250.036 11.98 250.204 12.148C250.372 12.316 250.604 12.4 250.9 12.4C251.204 12.4 251.464 12.344 251.68 12.232L251.728 12.964ZM258.587 13.096C257.699 13.096 256.971 12.804 256.403 12.22C255.835 11.636 255.551 10.888 255.551 9.976C255.551 9.064 255.835 8.316 256.403 7.732C256.971 7.148 257.699 6.856 258.587 6.856C259.467 6.856 260.191 7.148 260.759 7.732C261.335 8.316 261.623 9.064 261.623 9.976C261.623 10.888 261.335 11.636 260.759 12.22C260.191 12.804 259.467 13.096 258.587 13.096ZM258.587 12.4C259.251 12.4 259.791 12.176 260.207 11.728C260.623 11.272 260.831 10.688 260.831 9.976C260.831 9.264 260.623 8.684 260.207 8.236C259.791 7.78 259.251 7.552 258.587 7.552C257.915 7.552 257.371 7.78 256.955 8.236C256.547 8.684 256.343 9.264 256.343 9.976C256.343 10.688 256.547 11.272 256.955 11.728C257.371 12.176 257.915 12.4 258.587 12.4ZM263.013 13V6.952H263.769V8.212C264.001 7.796 264.301 7.468 264.669 7.228C265.045 6.98 265.465 6.856 265.929 6.856C266.553 6.856 267.065 7.052 267.465 7.444C267.865 7.828 268.065 8.336 268.065 8.968V13H267.309V9.064C267.309 8.616 267.173 8.252 266.901 7.972C266.637 7.692 266.277 7.552 265.821 7.552C265.205 7.552 264.709 7.804 264.333 8.308C263.957 8.812 263.769 9.492 263.769 10.348V13H263.013ZM275.74 12.964C275.476 13.052 275.168 13.096 274.816 13.096C274.32 13.096 273.928 12.948 273.64 12.652C273.352 12.348 273.208 11.892 273.208 11.284V7.648H272.032V6.952H273.208V5.092H273.964V6.952H275.632V7.648H273.964V11.404C273.964 11.732 274.048 11.98 274.216 12.148C274.384 12.316 274.616 12.4 274.912 12.4C275.216 12.4 275.476 12.344 275.692 12.232L275.74 12.964ZM277.017 13V4.504H277.773V8.272C278.229 7.328 278.945 6.856 279.921 6.856C280.609 6.856 281.157 7.052 281.565 7.444C281.981 7.828 282.189 8.344 282.189 8.992V13H281.433V9.088C281.433 8.608 281.289 8.232 281.001 7.96C280.721 7.688 280.325 7.552 279.813 7.552C279.197 7.552 278.701 7.812 278.325 8.332C277.957 8.852 277.773 9.548 277.773 10.42V13H277.017ZM289.294 9.652C289.294 9.804 289.286 9.936 289.27 10.048H284.35C284.358 10.744 284.558 11.312 284.95 11.752C285.342 12.184 285.846 12.4 286.462 12.4C286.982 12.4 287.41 12.284 287.746 12.052C288.09 11.82 288.306 11.492 288.394 11.068L289.114 11.212C288.978 11.812 288.678 12.276 288.214 12.604C287.75 12.932 287.17 13.096 286.474 13.096C285.618 13.096 284.922 12.804 284.386 12.22C283.85 11.628 283.582 10.88 283.582 9.976C283.582 9.072 283.85 8.328 284.386 7.744C284.922 7.152 285.618 6.856 286.474 6.856C287.298 6.856 287.974 7.12 288.502 7.648C289.03 8.168 289.294 8.836 289.294 9.652ZM284.41 9.352H288.514C288.45 8.816 288.238 8.384 287.878 8.056C287.518 7.72 287.05 7.552 286.474 7.552C285.938 7.552 285.486 7.712 285.118 8.032C284.758 8.352 284.522 8.792 284.41 9.352ZM130.512 32V26.648H129.456V25.952H130.512V25.328C130.512 24.704 130.66 24.224 130.956 23.888C131.252 23.544 131.64 23.372 132.12 23.372C132.408 23.372 132.664 23.4 132.888 23.456L132.864 24.176C132.68 24.104 132.464 24.068 132.216 24.068C131.936 24.068 131.708 24.172 131.532 24.38C131.356 24.588 131.268 24.864 131.268 25.208V25.952H132.876V26.648H131.268V32H130.512ZM136.431 32.096C135.543 32.096 134.815 31.804 134.247 31.22C133.679 30.636 133.395 29.888 133.395 28.976C133.395 28.064 133.679 27.316 134.247 26.732C134.815 26.148 135.543 25.856 136.431 25.856C137.311 25.856 138.035 26.148 138.603 26.732C139.179 27.316 139.467 28.064 139.467 28.976C139.467 29.888 139.179 30.636 138.603 31.22C138.035 31.804 137.311 32.096 136.431 32.096ZM136.431 31.4C137.095 31.4 137.635 31.176 138.051 30.728C138.467 30.272 138.675 29.688 138.675 28.976C138.675 28.264 138.467 27.684 138.051 27.236C137.635 26.78 137.095 26.552 136.431 26.552C135.759 26.552 135.215 26.78 134.799 27.236C134.391 27.684 134.187 28.264 134.187 28.976C134.187 29.688 134.391 30.272 134.799 30.728C135.215 31.176 135.759 31.4 136.431 31.4ZM145.908 25.952V32H145.152V30.74C144.92 31.156 144.616 31.488 144.24 31.736C143.872 31.976 143.456 32.096 142.992 32.096C142.368 32.096 141.856 31.904 141.456 31.52C141.056 31.128 140.856 30.616 140.856 29.984V25.952H141.612V29.888C141.612 30.336 141.744 30.7 142.008 30.98C142.28 31.26 142.644 31.4 143.1 31.4C143.716 31.4 144.212 31.148 144.588 30.644C144.964 30.14 145.152 29.46 145.152 28.604V25.952H145.908ZM147.665 32V25.952H148.421V27.212C148.653 26.796 148.953 26.468 149.321 26.228C149.697 25.98 150.117 25.856 150.581 25.856C151.205 25.856 151.717 26.052 152.117 26.444C152.517 26.828 152.717 27.336 152.717 27.968V32H151.961V28.064C151.961 27.616 151.825 27.252 151.553 26.972C151.289 26.692 150.929 26.552 150.473 26.552C149.857 26.552 149.361 26.804 148.985 27.308C148.609 27.812 148.421 28.492 148.421 29.348V32H147.665ZM157.054 32.096C156.126 32.096 155.402 31.804 154.882 31.22C154.37 30.628 154.114 29.88 154.114 28.976C154.114 28.072 154.37 27.328 154.882 26.744C155.402 26.152 156.126 25.856 157.054 25.856C157.47 25.856 157.874 25.956 158.266 26.156C158.658 26.356 158.954 26.612 159.154 26.924V23.504H159.91V32H159.154V31.028C159.018 31.324 158.75 31.576 158.35 31.784C157.958 31.992 157.526 32.096 157.054 32.096ZM155.506 30.74C155.898 31.18 156.422 31.4 157.078 31.4C157.734 31.4 158.258 31.18 158.65 30.74C159.042 30.3 159.238 29.712 159.238 28.976C159.238 28.24 159.042 27.652 158.65 27.212C158.258 26.772 157.734 26.552 157.078 26.552C156.422 26.552 155.898 26.772 155.506 27.212C155.114 27.652 154.918 28.24 154.918 28.976C154.918 29.712 155.114 30.3 155.506 30.74ZM163.877 25.856C164.581 25.856 165.153 26.056 165.593 26.456C166.041 26.856 166.265 27.376 166.265 28.016V32H165.509V30.896C165.325 31.264 165.041 31.556 164.657 31.772C164.273 31.988 163.845 32.096 163.373 32.096C162.765 32.096 162.269 31.932 161.885 31.604C161.509 31.276 161.321 30.848 161.321 30.32C161.321 29.744 161.565 29.296 162.053 28.976C162.541 28.648 163.289 28.432 164.297 28.328L165.509 28.208V28.04C165.509 27.584 165.357 27.224 165.053 26.96C164.757 26.688 164.365 26.552 163.877 26.552C163.413 26.552 163.033 26.68 162.737 26.936C162.441 27.192 162.265 27.54 162.209 27.98L161.477 27.836C161.565 27.244 161.829 26.768 162.269 26.408C162.709 26.04 163.245 25.856 163.877 25.856ZM163.433 31.4C164.089 31.4 164.597 31.208 164.957 30.824C165.325 30.44 165.509 29.9 165.509 29.204V28.844L164.321 28.964C162.849 29.124 162.113 29.576 162.113 30.32C162.113 30.64 162.237 30.9 162.485 31.1C162.733 31.3 163.049 31.4 163.433 31.4ZM171.033 31.964C170.769 32.052 170.461 32.096 170.109 32.096C169.613 32.096 169.221 31.948 168.933 31.652C168.645 31.348 168.501 30.892 168.501 30.284V26.648H167.325V25.952H168.501V24.092H169.257V25.952H170.925V26.648H169.257V30.404C169.257 30.732 169.341 30.98 169.509 31.148C169.677 31.316 169.909 31.4 170.205 31.4C170.509 31.4 170.769 31.344 170.985 31.232L171.033 31.964ZM172.226 23.504H173.162V24.656H172.226V23.504ZM172.31 32V25.952H173.066V32H172.31ZM177.493 32.096C176.605 32.096 175.877 31.804 175.309 31.22C174.741 30.636 174.457 29.888 174.457 28.976C174.457 28.064 174.741 27.316 175.309 26.732C175.877 26.148 176.605 25.856 177.493 25.856C178.373 25.856 179.097 26.148 179.665 26.732C180.241 27.316 180.529 28.064 180.529 28.976C180.529 29.888 180.241 30.636 179.665 31.22C179.097 31.804 178.373 32.096 177.493 32.096ZM177.493 31.4C178.157 31.4 178.697 31.176 179.113 30.728C179.529 30.272 179.737 29.688 179.737 28.976C179.737 28.264 179.529 27.684 179.113 27.236C178.697 26.78 178.157 26.552 177.493 26.552C176.821 26.552 176.277 26.78 175.861 27.236C175.453 27.684 175.249 28.264 175.249 28.976C175.249 29.688 175.453 30.272 175.861 30.728C176.277 31.176 176.821 31.4 177.493 31.4ZM181.919 32V25.952H182.675V27.212C182.907 26.796 183.207 26.468 183.575 26.228C183.951 25.98 184.371 25.856 184.835 25.856C185.459 25.856 185.971 26.052 186.371 26.444C186.771 26.828 186.971 27.336 186.971 27.968V32H186.215V28.064C186.215 27.616 186.079 27.252 185.807 26.972C185.543 26.692 185.183 26.552 184.727 26.552C184.111 26.552 183.615 26.804 183.239 27.308C182.863 27.812 182.675 28.492 182.675 29.348V32H181.919ZM194.31 32.096C193.422 32.096 192.694 31.804 192.126 31.22C191.558 30.636 191.274 29.888 191.274 28.976C191.274 28.064 191.558 27.316 192.126 26.732C192.694 26.148 193.422 25.856 194.31 25.856C195.19 25.856 195.914 26.148 196.482 26.732C197.058 27.316 197.346 28.064 197.346 28.976C197.346 29.888 197.058 30.636 196.482 31.22C195.914 31.804 195.19 32.096 194.31 32.096ZM194.31 31.4C194.974 31.4 195.514 31.176 195.93 30.728C196.346 30.272 196.554 29.688 196.554 28.976C196.554 28.264 196.346 27.684 195.93 27.236C195.514 26.78 194.974 26.552 194.31 26.552C193.638 26.552 193.094 26.78 192.678 27.236C192.27 27.684 192.066 28.264 192.066 28.976C192.066 29.688 192.27 30.272 192.678 30.728C193.094 31.176 193.638 31.4 194.31 31.4ZM199.196 32V26.648H198.14V25.952H199.196V25.328C199.196 24.704 199.344 24.224 199.64 23.888C199.936 23.544 200.324 23.372 200.804 23.372C201.092 23.372 201.348 23.4 201.572 23.456L201.548 24.176C201.364 24.104 201.148 24.068 200.9 24.068C200.62 24.068 200.392 24.172 200.216 24.38C200.04 24.588 199.952 24.864 199.952 25.208V25.952H201.56V26.648H199.952V32H199.196ZM209.439 32.096C208.911 32.096 208.411 32.008 207.939 31.832C207.467 31.648 207.039 31.388 206.655 31.052C206.279 30.708 205.979 30.256 205.755 29.696C205.531 29.136 205.419 28.504 205.419 27.8C205.419 27.096 205.531 26.464 205.755 25.904C205.979 25.344 206.283 24.896 206.667 24.56C207.051 24.216 207.479 23.956 207.951 23.78C208.423 23.596 208.919 23.504 209.439 23.504C210.311 23.504 211.055 23.736 211.671 24.2C212.287 24.664 212.695 25.292 212.895 26.084L212.103 26.264C211.959 25.624 211.655 25.128 211.191 24.776C210.727 24.424 210.143 24.248 209.439 24.248C208.487 24.248 207.719 24.56 207.135 25.184C206.551 25.808 206.259 26.68 206.259 27.8C206.259 28.92 206.551 29.792 207.135 30.416C207.719 31.04 208.487 31.352 209.439 31.352C210.143 31.352 210.719 31.184 211.167 30.848C211.623 30.504 211.935 30.012 212.103 29.372L212.895 29.528C212.679 30.32 212.263 30.948 211.647 31.412C211.039 31.868 210.303 32.096 209.439 32.096ZM214.228 32V23.504H214.984V27.272C215.44 26.328 216.156 25.856 217.132 25.856C217.82 25.856 218.368 26.052 218.776 26.444C219.192 26.828 219.4 27.344 219.4 27.992V32H218.644V28.088C218.644 27.608 218.5 27.232 218.212 26.96C217.932 26.688 217.536 26.552 217.024 26.552C216.408 26.552 215.912 26.812 215.536 27.332C215.168 27.852 214.984 28.548 214.984 29.42V32H214.228ZM224.501 26.696C224.261 26.6 223.997 26.552 223.709 26.552C223.181 26.552 222.749 26.824 222.413 27.368C222.077 27.904 221.909 28.668 221.909 29.66V32H221.153V25.952H221.909V27.236C222.093 26.836 222.365 26.508 222.725 26.252C223.085 25.988 223.453 25.856 223.829 25.856C224.093 25.856 224.333 25.892 224.549 25.964L224.501 26.696ZM225.522 23.504H226.458V24.656H225.522V23.504ZM225.606 32V25.952H226.362V32H225.606ZM230.106 32.096C229.426 32.096 228.878 31.928 228.462 31.592C228.054 31.248 227.782 30.836 227.646 30.356L228.318 30.02C228.638 30.94 229.234 31.4 230.106 31.4C230.506 31.4 230.834 31.296 231.09 31.088C231.354 30.88 231.486 30.632 231.486 30.344C231.486 30.024 231.362 29.776 231.114 29.6C230.874 29.416 230.578 29.284 230.226 29.204C229.874 29.124 229.522 29.036 229.17 28.94C228.818 28.844 228.518 28.672 228.27 28.424C228.03 28.176 227.91 27.84 227.91 27.416C227.91 26.936 228.098 26.556 228.474 26.276C228.858 25.996 229.37 25.856 230.01 25.856C230.522 25.856 230.978 25.996 231.378 26.276C231.778 26.548 232.038 26.904 232.158 27.344L231.498 27.644C231.418 27.324 231.234 27.064 230.946 26.864C230.658 26.656 230.33 26.552 229.962 26.552C229.562 26.552 229.25 26.628 229.026 26.78C228.802 26.924 228.69 27.136 228.69 27.416C228.69 27.672 228.814 27.872 229.062 28.016C229.31 28.16 229.606 28.272 229.95 28.352C230.302 28.424 230.654 28.516 231.006 28.628C231.358 28.732 231.654 28.928 231.894 29.216C232.142 29.504 232.266 29.88 232.266 30.344C232.266 30.872 232.066 31.296 231.666 31.616C231.274 31.936 230.754 32.096 230.106 32.096ZM236.599 31.964C236.335 32.052 236.027 32.096 235.675 32.096C235.179 32.096 234.787 31.948 234.499 31.652C234.211 31.348 234.067 30.892 234.067 30.284V26.648H232.891V25.952H234.067V24.092H234.823V25.952H236.491V26.648H234.823V30.404C234.823 30.732 234.907 30.98 235.075 31.148C235.243 31.316 235.475 31.4 235.771 31.4C236.075 31.4 236.335 31.344 236.551 31.232L236.599 31.964ZM237.792 23.504H238.728V24.656H237.792V23.504ZM237.876 32V25.952H238.632V32H237.876ZM242.604 25.856C243.308 25.856 243.88 26.056 244.32 26.456C244.768 26.856 244.992 27.376 244.992 28.016V32H244.236V30.896C244.052 31.264 243.768 31.556 243.384 31.772C243 31.988 242.572 32.096 242.1 32.096C241.492 32.096 240.996 31.932 240.612 31.604C240.236 31.276 240.048 30.848 240.048 30.32C240.048 29.744 240.292 29.296 240.78 28.976C241.268 28.648 242.016 28.432 243.024 28.328L244.236 28.208V28.04C244.236 27.584 244.084 27.224 243.78 26.96C243.484 26.688 243.092 26.552 242.604 26.552C242.14 26.552 241.76 26.68 241.464 26.936C241.168 27.192 240.992 27.54 240.936 27.98L240.204 27.836C240.292 27.244 240.556 26.768 240.996 26.408C241.436 26.04 241.972 25.856 242.604 25.856ZM242.16 31.4C242.816 31.4 243.324 31.208 243.684 30.824C244.052 30.44 244.236 29.9 244.236 29.204V28.844L243.048 28.964C241.576 29.124 240.84 29.576 240.84 30.32C240.84 30.64 240.964 30.9 241.212 31.1C241.46 31.3 241.776 31.4 242.16 31.4ZM246.747 32V25.952H247.503V27.212C247.735 26.796 248.035 26.468 248.403 26.228C248.779 25.98 249.199 25.856 249.663 25.856C250.287 25.856 250.799 26.052 251.199 26.444C251.599 26.828 251.799 27.336 251.799 27.968V32H251.043V28.064C251.043 27.616 250.907 27.252 250.635 26.972C250.371 26.692 250.011 26.552 249.555 26.552C248.939 26.552 248.443 26.804 248.067 27.308C247.691 27.812 247.503 28.492 247.503 29.348V32H246.747ZM257.986 32L255.766 25.952H256.558L258.406 31.124L260.254 25.952H261.058L258.838 32H257.986ZM264.155 25.856C264.859 25.856 265.431 26.056 265.871 26.456C266.319 26.856 266.543 27.376 266.543 28.016V32H265.787V30.896C265.603 31.264 265.319 31.556 264.935 31.772C264.551 31.988 264.123 32.096 263.651 32.096C263.043 32.096 262.547 31.932 262.163 31.604C261.787 31.276 261.599 30.848 261.599 30.32C261.599 29.744 261.843 29.296 262.331 28.976C262.819 28.648 263.567 28.432 264.575 28.328L265.787 28.208V28.04C265.787 27.584 265.635 27.224 265.331 26.96C265.035 26.688 264.643 26.552 264.155 26.552C263.691 26.552 263.311 26.68 263.015 26.936C262.719 27.192 262.543 27.54 262.487 27.98L261.755 27.836C261.843 27.244 262.107 26.768 262.547 26.408C262.987 26.04 263.523 25.856 264.155 25.856ZM263.711 31.4C264.367 31.4 264.875 31.208 265.235 30.824C265.603 30.44 265.787 29.9 265.787 29.204V28.844L264.599 28.964C263.127 29.124 262.391 29.576 262.391 30.32C262.391 30.64 262.515 30.9 262.763 31.1C263.011 31.3 263.327 31.4 263.711 31.4ZM268.298 32V23.504H269.054V32H268.298ZM275.858 25.952V32H275.102V30.74C274.87 31.156 274.566 31.488 274.19 31.736C273.822 31.976 273.406 32.096 272.942 32.096C272.318 32.096 271.806 31.904 271.406 31.52C271.006 31.128 270.806 30.616 270.806 29.984V25.952H271.562V29.888C271.562 30.336 271.694 30.7 271.958 30.98C272.23 31.26 272.594 31.4 273.05 31.4C273.666 31.4 274.162 31.148 274.538 30.644C274.914 30.14 275.102 29.46 275.102 28.604V25.952H275.858ZM282.966 28.652C282.966 28.804 282.958 28.936 282.942 29.048H278.022C278.03 29.744 278.23 30.312 278.622 30.752C279.014 31.184 279.518 31.4 280.134 31.4C280.654 31.4 281.082 31.284 281.418 31.052C281.762 30.82 281.978 30.492 282.066 30.068L282.786 30.212C282.65 30.812 282.35 31.276 281.886 31.604C281.422 31.932 280.842 32.096 280.146 32.096C279.29 32.096 278.594 31.804 278.058 31.22C277.522 30.628 277.254 29.88 277.254 28.976C277.254 28.072 277.522 27.328 278.058 26.744C278.594 26.152 279.29 25.856 280.146 25.856C280.97 25.856 281.646 26.12 282.174 26.648C282.702 27.168 282.966 27.836 282.966 28.652ZM278.082 28.352H282.186C282.122 27.816 281.91 27.384 281.55 27.056C281.19 26.72 280.722 26.552 280.146 26.552C279.61 26.552 279.158 26.712 278.79 27.032C278.43 27.352 278.194 27.792 278.082 28.352ZM286.286 32.096C285.606 32.096 285.058 31.928 284.642 31.592C284.234 31.248 283.962 30.836 283.826 30.356L284.498 30.02C284.818 30.94 285.414 31.4 286.286 31.4C286.686 31.4 287.014 31.296 287.27 31.088C287.534 30.88 287.666 30.632 287.666 30.344C287.666 30.024 287.542 29.776 287.294 29.6C287.054 29.416 286.758 29.284 286.406 29.204C286.054 29.124 285.702 29.036 285.35 28.94C284.998 28.844 284.698 28.672 284.45 28.424C284.21 28.176 284.09 27.84 284.09 27.416C284.09 26.936 284.278 26.556 284.654 26.276C285.038 25.996 285.55 25.856 286.19 25.856C286.702 25.856 287.158 25.996 287.558 26.276C287.958 26.548 288.218 26.904 288.338 27.344L287.678 27.644C287.598 27.324 287.414 27.064 287.126 26.864C286.838 26.656 286.51 26.552 286.142 26.552C285.742 26.552 285.43 26.628 285.206 26.78C284.982 26.924 284.87 27.136 284.87 27.416C284.87 27.672 284.994 27.872 285.242 28.016C285.49 28.16 285.786 28.272 286.13 28.352C286.482 28.424 286.834 28.516 287.186 28.628C287.538 28.732 287.834 28.928 288.074 29.216C288.322 29.504 288.446 29.88 288.446 30.344C288.446 30.872 288.246 31.296 287.846 31.616C287.454 31.936 286.934 32.096 286.286 32.096ZM294.975 25.856C295.679 25.856 296.251 26.056 296.691 26.456C297.139 26.856 297.363 27.376 297.363 28.016V32H296.607V30.896C296.423 31.264 296.139 31.556 295.755 31.772C295.371 31.988 294.943 32.096 294.471 32.096C293.863 32.096 293.367 31.932 292.983 31.604C292.607 31.276 292.419 30.848 292.419 30.32C292.419 29.744 292.663 29.296 293.151 28.976C293.639 28.648 294.387 28.432 295.395 28.328L296.607 28.208V28.04C296.607 27.584 296.455 27.224 296.151 26.96C295.855 26.688 295.463 26.552 294.975 26.552C294.511 26.552 294.131 26.68 293.835 26.936C293.539 27.192 293.363 27.54 293.307 27.98L292.575 27.836C292.663 27.244 292.927 26.768 293.367 26.408C293.807 26.04 294.343 25.856 294.975 25.856ZM294.531 31.4C295.187 31.4 295.695 31.208 296.055 30.824C296.423 30.44 296.607 29.9 296.607 29.204V28.844L295.419 28.964C293.947 29.124 293.211 29.576 293.211 30.32C293.211 30.64 293.335 30.9 293.583 31.1C293.831 31.3 294.147 31.4 294.531 31.4ZM299.118 32V25.952H299.874V27.212C300.106 26.796 300.406 26.468 300.774 26.228C301.15 25.98 301.57 25.856 302.034 25.856C302.658 25.856 303.17 26.052 303.57 26.444C303.97 26.828 304.17 27.336 304.17 27.968V32H303.414V28.064C303.414 27.616 303.278 27.252 303.006 26.972C302.742 26.692 302.382 26.552 301.926 26.552C301.31 26.552 300.814 26.804 300.438 27.308C300.062 27.812 299.874 28.492 299.874 29.348V32H299.118ZM308.507 32.096C307.579 32.096 306.855 31.804 306.335 31.22C305.823 30.628 305.567 29.88 305.567 28.976C305.567 28.072 305.823 27.328 306.335 26.744C306.855 26.152 307.579 25.856 308.507 25.856C308.923 25.856 309.327 25.956 309.719 26.156C310.111 26.356 310.407 26.612 310.607 26.924V23.504H311.363V32H310.607V31.028C310.471 31.324 310.203 31.576 309.803 31.784C309.411 31.992 308.979 32.096 308.507 32.096ZM306.959 30.74C307.351 31.18 307.875 31.4 308.531 31.4C309.187 31.4 309.711 31.18 310.103 30.74C310.495 30.3 310.691 29.712 310.691 28.976C310.691 28.24 310.495 27.652 310.103 27.212C309.711 26.772 309.187 26.552 308.531 26.552C307.875 26.552 307.351 26.772 306.959 27.212C306.567 27.652 306.371 28.24 306.371 28.976C306.371 29.712 306.567 30.3 306.959 30.74ZM318.873 32.096C318.401 32.096 317.965 31.992 317.565 31.784C317.173 31.576 316.909 31.324 316.773 31.028V32H316.017V23.504H316.773V26.924C316.973 26.612 317.269 26.356 317.661 26.156C318.053 25.956 318.457 25.856 318.873 25.856C319.801 25.856 320.521 26.152 321.033 26.744C321.553 27.328 321.813 28.072 321.813 28.976C321.813 29.88 321.553 30.628 321.033 31.22C320.521 31.804 319.801 32.096 318.873 32.096ZM317.277 30.74C317.669 31.18 318.193 31.4 318.849 31.4C319.505 31.4 320.029 31.18 320.421 30.74C320.813 30.3 321.009 29.712 321.009 28.976C321.009 28.24 320.813 27.652 320.421 27.212C320.029 26.772 319.505 26.552 318.849 26.552C318.193 26.552 317.669 26.772 317.277 27.212C316.885 27.652 316.689 28.24 316.689 28.976C316.689 29.712 316.885 30.3 317.277 30.74ZM328.552 28.652C328.552 28.804 328.544 28.936 328.528 29.048H323.608C323.616 29.744 323.816 30.312 324.208 30.752C324.6 31.184 325.104 31.4 325.72 31.4C326.24 31.4 326.668 31.284 327.004 31.052C327.348 30.82 327.564 30.492 327.652 30.068L328.372 30.212C328.236 30.812 327.936 31.276 327.472 31.604C327.008 31.932 326.428 32.096 325.732 32.096C324.876 32.096 324.18 31.804 323.644 31.22C323.108 30.628 322.84 29.88 322.84 28.976C322.84 28.072 323.108 27.328 323.644 26.744C324.18 26.152 324.876 25.856 325.732 25.856C326.556 25.856 327.232 26.12 327.76 26.648C328.288 27.168 328.552 27.836 328.552 28.652ZM323.668 28.352H327.772C327.708 27.816 327.496 27.384 327.136 27.056C326.776 26.72 326.308 26.552 325.732 26.552C325.196 26.552 324.744 26.712 324.376 27.032C324.016 27.352 323.78 27.792 323.668 28.352ZM329.939 32V23.504H330.695V32H329.939ZM332.362 23.504H333.298V24.656H332.362V23.504ZM332.446 32V25.952H333.202V32H332.446ZM340.306 28.652C340.306 28.804 340.298 28.936 340.282 29.048H335.362C335.37 29.744 335.57 30.312 335.962 30.752C336.354 31.184 336.858 31.4 337.474 31.4C337.994 31.4 338.422 31.284 338.758 31.052C339.102 30.82 339.318 30.492 339.406 30.068L340.126 30.212C339.99 30.812 339.69 31.276 339.226 31.604C338.762 31.932 338.182 32.096 337.486 32.096C336.63 32.096 335.934 31.804 335.398 31.22C334.862 30.628 334.594 29.88 334.594 28.976C334.594 28.072 334.862 27.328 335.398 26.744C335.934 26.152 336.63 25.856 337.486 25.856C338.31 25.856 338.986 26.12 339.514 26.648C340.042 27.168 340.306 27.836 340.306 28.652ZM335.422 28.352H339.526C339.462 27.816 339.25 27.384 338.89 27.056C338.53 26.72 338.062 26.552 337.486 26.552C336.95 26.552 336.498 26.712 336.13 27.032C335.77 27.352 335.534 27.792 335.422 28.352ZM342.153 32V26.648H341.097V25.952H342.153V25.328C342.153 24.704 342.301 24.224 342.597 23.888C342.893 23.544 343.281 23.372 343.761 23.372C344.049 23.372 344.305 23.4 344.529 23.456L344.505 24.176C344.321 24.104 344.105 24.068 343.857 24.068C343.577 24.068 343.349 24.172 343.173 24.38C342.997 24.588 342.909 24.864 342.909 25.208V25.952H344.517V26.648H342.909V32H342.153Z" fill="white"/>
</svg>
