<svg width="30" height="30" viewBox="0 0 30 30" fill="none" xmlns="http://www.w3.org/2000/svg">
<path d="M4.71426 13.0712C4.71426 12.2187 5.05291 11.4012 5.6557 10.7984C6.2585 10.1956 7.07606 9.85693 7.92854 9.85693C8.78103 9.85693 9.59859 10.1956 10.2014 10.7984C10.8042 11.4012 11.1428 12.2187 11.1428 13.0712C11.1428 13.9237 10.8042 14.7413 10.2014 15.3441C9.59859 15.9469 8.78103 16.2855 7.92854 16.2855C7.07606 16.2855 6.2585 15.9469 5.6557 15.3441C5.05291 14.7413 4.71426 13.9237 4.71426 13.0712ZM7.92854 11.7855C7.58755 11.7855 7.26053 11.921 7.01941 12.1621C6.77829 12.4032 6.64283 12.7302 6.64283 13.0712C6.64283 13.4122 6.77829 13.7392 7.01941 13.9804C7.26053 14.2215 7.58755 14.3569 7.92854 14.3569C8.26954 14.3569 8.59656 14.2215 8.83768 13.9804C9.0788 13.7392 9.21426 13.4122 9.21426 13.0712C9.21426 12.7302 9.0788 12.4032 8.83768 12.1621C8.59656 11.921 8.26954 11.7855 7.92854 11.7855ZM7.92854 18.8569C7.07606 18.8569 6.2585 19.1956 5.6557 19.7984C5.05291 20.4012 4.71426 21.2187 4.71426 22.0712C4.71426 22.9237 5.05291 23.7413 5.6557 24.3441C6.2585 24.9469 7.07606 25.2855 7.92854 25.2855C8.78103 25.2855 9.59859 24.9469 10.2014 24.3441C10.8042 23.7413 11.1428 22.9237 11.1428 22.0712C11.1428 21.2187 10.8042 20.4012 10.2014 19.7984C9.59859 19.1956 8.78103 18.8569 7.92854 18.8569ZM6.64283 22.0712C6.64283 21.7302 6.77829 21.4032 7.01941 21.1621C7.26053 20.921 7.58755 20.7855 7.92854 20.7855C8.26954 20.7855 8.59656 20.921 8.83768 21.1621C9.0788 21.4032 9.21426 21.7302 9.21426 22.0712C9.21426 22.4122 9.0788 22.7392 8.83768 22.9804C8.59656 23.2215 8.26954 23.3569 7.92854 23.3569C7.58755 23.3569 7.26053 23.2215 7.01941 22.9804C6.77829 22.7392 6.64283 22.4122 6.64283 22.0712ZM13.7143 12.7498C13.7143 12.494 13.8159 12.2488 13.9967 12.0679C14.1775 11.8871 14.4228 11.7855 14.6785 11.7855H24.3214C24.5771 11.7855 24.8224 11.8871 25.0033 12.0679C25.1841 12.2488 25.2857 12.494 25.2857 12.7498C25.2857 13.0055 25.1841 13.2508 25.0033 13.4316C24.8224 13.6125 24.5771 13.7141 24.3214 13.7141H14.6785C14.4228 13.7141 14.1775 13.6125 13.9967 13.4316C13.8159 13.2508 13.7143 13.0055 13.7143 12.7498ZM14.6785 20.7855C14.4228 20.7855 14.1775 20.8871 13.9967 21.0679C13.8159 21.2488 13.7143 21.494 13.7143 21.7498C13.7143 22.0055 13.8159 22.2508 13.9967 22.4316C14.1775 22.6125 14.4228 22.7141 14.6785 22.7141H24.3214C24.5771 22.7141 24.8224 22.6125 25.0033 22.4316C25.1841 22.2508 25.2857 22.0055 25.2857 21.7498C25.2857 21.494 25.1841 21.2488 25.0033 21.0679C24.8224 20.8871 24.5771 20.7855 24.3214 20.7855H14.6785ZM4.71426 6.32122C4.71426 6.06547 4.81585 5.8202 4.99669 5.63937C5.17753 5.45853 5.4228 5.35693 5.67854 5.35693H24.3214C24.5771 5.35693 24.8224 5.45853 25.0033 5.63937C25.1841 5.8202 25.2857 6.06547 25.2857 6.32122C25.2857 6.57696 25.1841 6.82223 25.0033 7.00307C24.8224 7.18391 24.5771 7.2855 24.3214 7.2855H5.67854C5.4228 7.2855 5.17753 7.18391 4.99669 7.00307C4.81585 6.82223 4.71426 6.57696 4.71426 6.32122ZM5.67854 0.856934C4.39982 0.856934 3.17347 1.3649 2.26928 2.2691C1.36509 3.17329 0.857117 4.39964 0.857117 5.67836V24.3212C0.857117 25.5999 1.36509 26.8263 2.26928 27.7305C3.17347 28.6347 4.39982 29.1426 5.67854 29.1426H24.3214C25.6001 29.1426 26.8265 28.6347 27.7307 27.7305C28.6349 26.8263 29.1428 25.5999 29.1428 24.3212V5.67836C29.1428 4.39964 28.6349 3.17329 27.7307 2.2691C26.8265 1.3649 25.6001 0.856934 24.3214 0.856934H5.67854ZM2.78569 5.67836C2.78569 4.91113 3.09047 4.17532 3.63299 3.6328C4.1755 3.09029 4.91131 2.78551 5.67854 2.78551H24.3214C25.0886 2.78551 25.8244 3.09029 26.367 3.6328C26.9095 4.17532 27.2143 4.91113 27.2143 5.67836V24.3212C27.2143 25.0885 26.9095 25.8243 26.367 26.3668C25.8244 26.9093 25.0886 27.2141 24.3214 27.2141H5.67854C4.91131 27.2141 4.1755 26.9093 3.63299 26.3668C3.09047 25.8243 2.78569 25.0885 2.78569 24.3212V5.67836Z" fill="white"/>
</svg>
