<svg width="115" height="64" viewBox="0 0 115 64" fill="none" xmlns="http://www.w3.org/2000/svg">
<g clip-path="url(#clip0_618_5658)">
<path d="M114.274 0.669678H0.669678V46.2338H114.274V0.669678Z" stroke="#212121" stroke-width="1.28335"/>
<path d="M96.5463 34.2483C89.8807 34.2483 84.1982 28.5303 84.1982 21.7599C84.1982 14.9895 89.8807 9.30664 96.5463 9.30664C99.8785 9.30664 102.966 10.7098 105.211 12.99L103.351 14.8843C101.598 13.0251 99.1771 11.8324 96.5463 11.8324C91.3543 11.8324 86.9692 16.3927 86.9692 21.7599C86.9692 27.1622 91.3543 31.7225 96.5463 31.7225C99.1771 31.7225 101.598 30.5299 103.351 28.6706L105.211 30.5649C102.966 32.81 99.8785 34.2483 96.5463 34.2483Z" fill="#212121"/>
<path d="M53.0637 33.8275V9.72778H55.8L70.7438 29.3373V9.72778H73.4801V33.8275H70.7438L55.8 14.218V33.8275H53.0637Z" fill="#212121"/>
<path d="M38.6677 38.6677V8.20215H41.346V38.6677H38.6677Z" fill="#212121"/>
<path d="M19.8569 34.2131C15.893 34.2131 12.7708 32.7749 10.3503 30.3895L12.0692 28.2496C14.1039 30.2842 16.5946 31.7225 19.9622 31.7225C23.6806 31.7225 25.5749 29.6879 25.5749 27.5129C25.5749 24.9521 23.2947 23.9348 19.0852 22.9526C14.2442 21.83 11.1923 20.3216 11.1923 16.1471C11.1923 12.2884 14.6301 9.27148 19.2606 9.27148C22.8387 9.27148 25.5048 10.6747 27.7148 12.7093L26.031 14.8491C24.0314 12.9198 21.646 11.7621 19.1203 11.7621C16.1385 11.7621 13.9636 13.7266 13.9636 15.9366C13.9636 18.4273 16.349 19.3043 20.4533 20.2865C25.0487 21.374 28.3462 23.0227 28.3462 27.2674C28.3462 31.0911 25.4697 34.2131 19.8569 34.2131Z" fill="#212121"/>
<path d="M1.61694 62.4873V54.2479H4.96313C6.6662 54.2479 7.99748 55.3393 7.99748 56.8863C7.99748 58.4336 6.6662 59.525 4.96313 59.525H2.55244V62.4873H1.61694ZM2.55244 58.6378H4.79523C6.13852 58.6378 7.04998 57.99 7.04998 56.8863C7.04998 55.7831 6.13852 55.1355 4.79523 55.1355H2.55244V58.6378ZM23.116 62.4873L22.2885 60.6164H17.6949L16.8674 62.4873H15.8479L19.4819 54.2479H20.5014L24.1354 62.4873H23.116ZM18.0787 59.7292H21.9046L19.9977 55.3993L18.0787 59.7292ZM38.922 56.8863C38.922 58.1819 37.9865 59.1651 36.6792 59.4413L38.8141 62.4873H37.7467L35.6598 59.525H33.477V62.4873H32.5415V54.2479H35.8877C37.5908 54.2479 38.922 55.3393 38.922 56.8863ZM33.477 55.1355V58.6378H35.7197C37.063 58.6378 37.9745 57.99 37.9745 56.8863C37.9745 55.7831 37.063 55.1355 35.7197 55.1355H33.477ZM49.7809 62.4873V55.1355H47.0104V54.2479H53.4869V55.1355H50.7163V62.4873H49.7809ZM62.2289 62.4873V54.2479H63.164L68.2734 60.9523V54.2479H69.2092V62.4873H68.2734L63.164 55.7831V62.4873H62.2289ZM84.2673 55.1355H79.3018V57.846H83.7757V58.7337H79.3018V61.6001H84.2673V62.4873H78.3544V54.2479H84.2673V55.1355ZM99.3304 56.8863C99.3304 58.1819 98.3953 59.1651 97.0879 59.4413L99.2228 62.4873H98.1553L96.0685 59.525H93.8857V62.4873H92.95V54.2479H96.2962C97.9991 54.2479 99.3304 55.3393 99.3304 56.8863ZM93.8857 55.1355V58.6378H96.1282C97.4713 58.6378 98.383 57.99 98.383 56.8863C98.383 55.7831 97.4713 55.1355 96.1282 55.1355H93.8857ZM110.681 62.6195C109.326 62.6195 108.259 62.1279 107.431 61.3122L108.019 60.5806C108.714 61.2759 109.565 61.768 110.717 61.768C111.988 61.768 112.636 61.0722 112.636 60.3284C112.636 59.453 111.856 59.1054 110.417 58.7695C108.762 58.3856 107.719 57.87 107.719 56.4427C107.719 55.1235 108.894 54.092 110.477 54.092C111.7 54.092 112.612 54.5718 113.367 55.2674L112.792 55.9991C112.108 55.3393 111.293 54.9436 110.429 54.9436C109.41 54.9436 108.666 55.6152 108.666 56.3707C108.666 57.2222 109.482 57.5224 110.885 57.8583C112.456 58.2299 113.583 58.7934 113.583 60.2447C113.583 61.5521 112.6 62.6195 110.681 62.6195Z" fill="#212121"/>
</g>
<defs>
<clipPath id="clip0_618_5658">
<rect width="114.943" height="64" fill="white"/>
</clipPath>
</defs>
</svg>
